HIERARCHY
ROOT Hips
{
  OFFSET 150.432 88.1888 27.0678
  CHANNELS 6 Xposition Yposition Zposition Zrotation Xrotation Yrotation
  JOINT RightUpLeg
  {
    OFFSET -9.25679 -1.50405 0.000749919
    CHANNELS 3 Zrotation Xrotation Yrotation
    JOINT RightLeg
    {
      OFFSET 0.0460649 -41.9017 0.109432
      CHANNELS 3 Zrotation Xrotation Yrotation
      JOINT RightFoot
      {
        OFFSET 1.7988 -41.6468 0.413135
        CHANNELS 3 Zrotation Xrotation Yrotation
        End Site
        {
          OFFSET 0 -7.69 17.5
        }
      }
    }
  }
  JOINT LeftUpLeg
  {
    OFFSET 9.37007 -1.70178 -0.0772456
    CHANNELS 3 Zrotation Xrotation Yrotation
    JOINT LeftLeg
    {
      OFFSET 0.225295 -41.8622 -0.102498
      CHANNELS 3 Zrotation Xrotation Yrotation
      JOINT LeftFoot
      {
        OFFSET -2.07126 -41.2817 -1.22305
        CHANNELS 3 Zrotation Xrotation Yrotation
        End Site
        {
          OFFSET 0 -7.69 17.5
        }
      }
    }
  }
  JOINT Spine
  {
    OFFSET 0.0614897 14.2979 0.0172263
    CHANNELS 3 Zrotation Xrotation Yrotation
    JOINT Spine1
    {
      OFFSET 0.0253415 9.71429 0.00919728
      CHANNELS 3 Zrotation Xrotation Yrotation
      JOINT Spine2
      {
        OFFSET -0.0163533 10.1275 0.00641818
        CHANNELS 3 Zrotation Xrotation Yrotation
        JOINT Spine3
        {
          OFFSET 0.00964153 9.71178 0.018187
          CHANNELS 3 Zrotation Xrotation Yrotation
          JOINT Neck
          {
            OFFSET -0.0402277 10.3749 0.0917408
            CHANNELS 3 Zrotation Xrotation Yrotation
            JOINT Head
            {
              OFFSET 0.0121048 9.49481 0.108971
              CHANNELS 3 Zrotation Xrotation Yrotation
              End Site
              {
                OFFSET 0 15.95 0
              }
            }
          }
          JOINT RightShoulder
          {
            OFFSET -3.18208 6.946 0.015457
            CHANNELS 3 Zrotation Xrotation Yrotation
            JOINT RightArm
            {
              OFFSET -12.7708 0.0386499 -0.00729584
              CHANNELS 3 Zrotation Xrotation Yrotation
              JOINT RightForeArm
              {
                OFFSET -26.422 0.00272702 0.0331834
                CHANNELS 3 Zrotation Xrotation Yrotation
                JOINT RightHand
                {
                  OFFSET -25.9963 -0.0318335 0.00677283
                  CHANNELS 3 Zrotation Xrotation Yrotation
                  JOINT RightHandThumb1
                  {
                    OFFSET -2.48905 0.190105 3.12053
                    CHANNELS 3 Zrotation Xrotation Yrotation
                    JOINT RightHandThumb2
                    {
                      OFFSET -3.68274 0 0
                      CHANNELS 3 Zrotation Xrotation Yrotation
                      JOINT RightHandThumb3
                      {
                        OFFSET -2.55832 0 0
                        CHANNELS 3 Zrotation Xrotation Yrotation
                        End Site
                        {
                          OFFSET -2.194 0 0
                        }
                      }
                    }
                  }
                  JOINT RightInHandIndex
                  {
                    OFFSET -3.22368 0.508421 1.97842
                    CHANNELS 3 Zrotation Xrotation Yrotation
                    JOINT RightHandIndex1
                    {
                      OFFSET -5.21684 -0.091368 0.999158
                      CHANNELS 3 Zrotation Xrotation Yrotation
                      JOINT RightHandIndex2
                      {
                        OFFSET -3.61937 0 0
                        CHANNELS 3 Zrotation Xrotation Yrotation
                        JOINT RightHandIndex3
                        {
                          OFFSET -2.0521 0 0
                          CHANNELS 3 Zrotation Xrotation Yrotation
                          End Site
                          {
                            OFFSET -1.805 0 0
                          }
                        }
                      }
                    }
                  }
                  JOINT RightInHandMiddle
                  {
                    OFFSET -3.38211 0.517263 0.756737
                    CHANNELS 3 Zrotation Xrotation Yrotation
                    JOINT RightHandMiddle1
                    {
                      OFFSET -5.17411 -0.084 0.313895
                      CHANNELS 3 Zrotation Xrotation Yrotation
                      JOINT RightHandMiddle2
                      {
                        OFFSET -3.94947 0 0
                        CHANNELS 3 Zrotation Xrotation Yrotation
                        JOINT RightHandMiddle3
                        {
                          OFFSET -2.47579 0 0
                          CHANNELS 3 Zrotation Xrotation Yrotation
                          End Site
                          {
                            OFFSET -1.975 0 0
                          }
                        }
                      }
                    }
                  }
                  JOINT RightInHandRing
                  {
                    OFFSET -3.36516 0.537895 -0.128947
                    CHANNELS 3 Zrotation Xrotation Yrotation
                    JOINT RightHandRing1
                    {
                      OFFSET -4.63474 -0.022105 -0.478947
                      CHANNELS 3 Zrotation Xrotation Yrotation
                      JOINT RightHandRing2
                      {
                        OFFSET -3.44238 0 0
                        CHANNELS 3 Zrotation Xrotation Yrotation
                        JOINT RightHandRing3
                        {
                          OFFSET -2.3881 0 0
                          CHANNELS 3 Zrotation Xrotation Yrotation
                          End Site
                          {
                            OFFSET -1.857 0 0
                          }
                        }
                      }
                    }
                  }
                  JOINT RightInHandPinky
                  {
                    OFFSET -3.16105 0.469368 -1.20179
                    CHANNELS 3 Zrotation Xrotation Yrotation
                    JOINT RightHandPinky1
                    {
                      OFFSET -4.14105 -0.022105 -1.09053
                      CHANNELS 3 Zrotation Xrotation Yrotation
                      JOINT RightHandPinky2
                      {
                        OFFSET -2.75653 0 0
                        CHANNELS 3 Zrotation Xrotation Yrotation
                        JOINT RightHandPinky3
                        {
                          OFFSET -1.74189 0 0
                          CHANNELS 3 Zrotation Xrotation Yrotation
                          End Site
                          {
                            OFFSET -1.645 0 0
                          }
                        }
                      }
                    }
                  }
                }
              }
            }
          }
          JOINT LeftShoulder
          {
            OFFSET 3.18966 6.92856 0.062398
            CHANNELS 3 Zrotation Xrotation Yrotation
            JOINT LeftArm
            {
              OFFSET 12.7601 -0.0509086 0.00275124
              CHANNELS 3 Zrotation Xrotation Yrotation
              JOINT LeftForeArm
              {
                OFFSET 26.4828 -0.0571091 -0.0285564
                CHANNELS 3 Zrotation Xrotation Yrotation
                JOINT LeftHand
                {
                  OFFSET 25.9994 -0.0171136 -0.0547064
                  CHANNELS 3 Zrotation Xrotation Yrotation
                  JOINT LeftHandThumb1
                  {
                    OFFSET 2.48905 0.190105 3.12053
                    CHANNELS 3 Zrotation Xrotation Yrotation
                    JOINT LeftHandThumb2
                    {
                      OFFSET 3.68274 0 0
                      CHANNELS 3 Zrotation Xrotation Yrotation
                      JOINT LeftHandThumb3
                      {
                        OFFSET 2.55832 0 0
                        CHANNELS 3 Zrotation Xrotation Yrotation
                        End Site
                        {
                          OFFSET 2.194 0 0
                        }
                      }
                    }
                  }
                  JOINT LeftInHandIndex
                  {
                    OFFSET 3.22368 0.508421 1.97842
                    CHANNELS 3 Zrotation Xrotation Yrotation
                    JOINT LeftHandIndex1
                    {
                      OFFSET 5.21684 -0.091368 0.999158
                      CHANNELS 3 Zrotation Xrotation Yrotation
                      JOINT LeftHandIndex2
                      {
                        OFFSET 3.61937 0 0
                        CHANNELS 3 Zrotation Xrotation Yrotation
                        JOINT LeftHandIndex3
                        {
                          OFFSET 2.0521 0 0
                          CHANNELS 3 Zrotation Xrotation Yrotation
                          End Site
                          {
                            OFFSET 1.805 0 0
                          }
                        }
                      }
                    }
                  }
                  JOINT LeftInHandMiddle
                  {
                    OFFSET 3.38211 0.517263 0.756737
                    CHANNELS 3 Zrotation Xrotation Yrotation
                    JOINT LeftHandMiddle1
                    {
                      OFFSET 5.17411 -0.084 0.313895
                      CHANNELS 3 Zrotation Xrotation Yrotation
                      JOINT LeftHandMiddle2
                      {
                        OFFSET 3.94947 0 0
                        CHANNELS 3 Zrotation Xrotation Yrotation
                        JOINT LeftHandMiddle3
                        {
                          OFFSET 2.47579 0 0
                          CHANNELS 3 Zrotation Xrotation Yrotation
                          End Site
                          {
                            OFFSET 1.975 0 0
                          }
                        }
                      }
                    }
                  }
                  JOINT LeftInHandRing
                  {
                    OFFSET 3.36516 0.537895 -0.128947
                    CHANNELS 3 Zrotation Xrotation Yrotation
                    JOINT LeftHandRing1
                    {
                      OFFSET 4.63474 -0.022105 -0.478947
                      CHANNELS 3 Zrotation Xrotation Yrotation
                      JOINT LeftHandRing2
                      {
                        OFFSET 3.44238 0 0
                        CHANNELS 3 Zrotation Xrotation Yrotation
                        JOINT LeftHandRing3
                        {
                          OFFSET 2.3881 0 0
                          CHANNELS 3 Zrotation Xrotation Yrotation
                          End Site
                          {
                            OFFSET 1.857 0 0
                          }
                        }
                      }
                    }
                  }
                  JOINT LeftInHandPinky
                  {
                    OFFSET 3.16105 0.469368 -1.20179
                    CHANNELS 3 Zrotation Xrotation Yrotation
                    JOINT LeftHandPinky1
                    {
                      OFFSET 4.14105 -0.022105 -1.09053
                      CHANNELS 3 Zrotation Xrotation Yrotation
                      JOINT LeftHandPinky2
                      {
                        OFFSET 2.75653 0 0
                        CHANNELS 3 Zrotation Xrotation Yrotation
                        JOINT LeftHandPinky3
                        {
                          OFFSET 1.74189 0 0
                          CHANNELS 3 Zrotation Xrotation Yrotation
                          End Site
                          {
                            OFFSET 1.645 0 0
                          }
                        }
                      }
                    }
                  }
                }
              }
            }
          }
        }
      }
    }
  }
}
MOTION
Frames: 2
Frame Time: 0.00833333
2.401659999999999854e+03 8.750810000000001310e+01 2.738929999999999865e+01 1.894200000000000017e+01 -2.623270000000000124e+01 -1.693890000000000100e+02 4.192369999999998953e+01 -5.363989999999999725e+01 5.451470000000000482e+01 -7.494970000000000354e+00 2.574540000000000006e+01 2.561580000000000013e+01 1.081609999999999872e+01 1.173559999999999715e+00 -2.762410000000000032e+00 4.620400000000000773e+01 -3.107370000000000232e+01 6.001670000000000016e+01 -4.031330000000000524e+00 3.909249999999999403e+01 2.081569999999999965e+01 -1.435260000000000247e+01 -1.029620000000000246e+01 2.654749999999999943e+00 -9.933419999999999916e+00 1.247440000000000104e+00 -9.888709999999999667e+00 -2.512970000000000148e+00 -1.229260000000000908e-01 -2.514940000000000175e+00 -4.139780000000000015e+00 -3.835390000000002964e-01 -4.095979999999999066e+00 -4.321099999999999386e-01 2.338429999999999676e-02 2.228149999999999409e+00 -1.140330000000000066e+00 -3.633930000000001881e-02 1.184029999999999738e+01 -8.821440000000002613e+00 2.595119999999999649e+00 3.658480000000000132e+01 9.908519999999999550e-01 -3.098849999999999660e+00 -4.699690000000000367e+00 8.258769999999999811e+01 -2.367490000000000094e+00 -3.085960000000000036e+01 4.361689999999999401e+01 -3.003470000000000084e+00 1.764000000000000057e+02 -2.111829999999999785e+01 -5.911069999999997826e+00 1.087899999999999778e+01 2.818400000000000105e+01 1.072940000000000005e+01 1.915919999999999845e+01 4.255320000000000681e-16 -1.590280000000000116e-14 -1.000000000000000000e+01 4.776790000000000061e-15 -9.541660000000000512e-15 -1.000000000000000000e+01 -1.972152263052529514e-31 -3.180550000000000771e-15 -4.770830000000000256e-15 1.998179999999999978e+01 8.718970000000000331e-01 2.396399999999999864e+00 2.400000000000000000e+01 0.000000000000000000e+00 1.590279999999999801e-14 2.000000000000000000e+01 3.180549999999999982e-15 1.590280000000000116e-14 -1.972152263052529514e-31 -3.180550000000000771e-15 -4.770830000000000256e-15 2.000000000000000000e+01 -6.361109999999999741e-15 3.180549999999999982e-15 2.400000000000000000e+01 -6.361109999999999741e-15 1.590280000000000116e-14 2.000000000000000000e+01 -4.770830000000001045e-15 0.000000000000000000e+00 -1.972152263052529514e-31 -3.180550000000000771e-15 -4.770830000000000256e-15 1.997479999999999833e+01 -1.025649999999999951e+00 -2.819380000000000219e+00 2.400000000000000000e+01 1.590280000000000668e-15 3.180549999999999982e-15 2.000000000000000000e+01 7.156249999999999484e-15 1.272220000000000308e-14 -1.972152263052529514e-31 -3.180550000000000771e-15 -4.770830000000000256e-15 1.978150000000000119e+01 -3.009479999999999933e+00 -8.305149999999999366e+00 2.400000000000000000e+01 6.361109999999997375e-15 6.361109999999999741e-15 2.000000000000000000e+01 -7.205940000000000494e-15 1.590279999999999801e-14 6.046050000000001035e+00 -1.700650000000000261e+01 -1.996989999999999554e+01 1.985849999999999937e+01 2.275309999999999988e+01 -1.377699999999999818e+02 5.044510000000000360e+01 9.690719999999998890e+00 3.041679999999999495e+00 -6.137570000000000903e+01 -4.295069999999999766e+01 -6.338960000000000861e+01 -2.818400000000000105e+01 1.072940000000000005e+01 -1.915919999999999845e+01 5.898419999999999317e-15 3.180549999999999193e-15 1.000000000000000000e+01 -5.898420000000000894e-15 -3.180549999999999193e-15 1.000000000000000000e+01 -2.385420000000000017e-15 3.180549999999999587e-15 3.975690000000000513e-16 -1.998179999999999978e+01 8.718970000000000331e-01 -2.396399999999999864e+00 -2.400000000000000000e+01 -6.361109999999999741e-15 -9.541660000000003667e-15 -2.000000000000000000e+01 -7.951389999999999226e-15 -3.180550000000000771e-15 -2.385420000000000017e-15 3.180549999999999587e-15 3.975690000000000513e-16 -2.000000000000000000e+01 6.361109999999999741e-15 4.770830000000001834e-15 -2.400000000000000000e+01 -3.180549999999999587e-15 2.544439999999999986e-14 -2.000000000000000000e+01 -3.180550000000000771e-15 0.000000000000000000e+00 -2.385420000000000017e-15 3.180549999999999587e-15 3.975690000000000513e-16 -1.997479999999999833e+01 -1.025649999999999951e+00 2.819380000000000219e+00 -2.400000000000000000e+01 0.000000000000000000e+00 3.180549999999999982e-15 -2.000000000000000000e+01 -4.770830000000000256e-15 9.541660000000000512e-15 -2.385420000000000017e-15 3.180549999999999587e-15 3.975690000000000513e-16 -1.978150000000000119e+01 -3.009479999999999933e+00 8.305149999999999366e+00 -2.400000000000000000e+01 0.000000000000000000e+00 1.590280000000000116e-14 -2.000000000000000000e+01 -1.590279999999999485e-15 -6.361110000000000530e-15
2.401677999999999884e+03 8.751519999999999300e+01 2.744369999999999621e+01 1.910360000000000014e+01 -2.618400000000000105e+01 -1.689840000000000089e+02 4.171180000000000376e+01 -5.383559999999999235e+01 5.429789999999999850e+01 -7.470340000000000202e+00 2.583399999999999963e+01 2.555040000000000333e+01 1.083150000000000013e+01 1.056059999999999999e+00 -2.899109999999999410e+00 4.622899999999999920e+01 -3.141450000000000387e+01 5.996320000000000050e+01 -3.845909999999999940e+00 3.909979999999999478e+01 2.063580000000000325e+01 -1.427690000000000126e+01 -1.023440000000000083e+01 2.603169999999999984e+00 -9.888779999999998793e+00 1.391510000000000247e+00 -9.617889999999997386e+00 -2.503309999999999924e+00 -7.364159999999975170e-02 -2.454589999999999606e+00 -4.123560000000000336e+00 -2.977349999999998609e-01 -4.004100000000000215e+00 -4.316289999999999849e-01 3.097809999999999453e-02 2.208979999999999944e+00 -1.096549999999999914e+00 -1.641459999999994590e-02 1.122850000000000037e+01 -8.839760000000001838e+00 2.634520000000000195e+00 3.665849999999999653e+01 8.574219999999999064e-01 -3.096099999999999852e+00 -4.909119999999999706e+00 8.376049999999999329e+01 -2.179809999999999803e+00 -3.000889999999999702e+01 4.325170000000000670e+01 -3.469719999999998805e+00 1.755000000000000284e+02 -2.092699999999999960e+01 -5.416249999999999787e+00 1.235820000000000007e+01 2.818400000000000105e+01 1.072940000000000005e+01 1.915919999999999845e+01 2.668799999999999506e-15 -3.180550000000000771e-15 -1.000000000000000000e+01 1.682449999999999561e-15 9.541660000000000512e-15 -1.000000000000000000e+01 -3.944304526105059027e-31 -9.541660000000000512e-15 -3.180549999999999982e-15 1.998179999999999978e+01 8.718970000000000331e-01 2.396399999999999864e+00 2.400000000000000000e+01 9.541659999999998934e-15 -9.541659999999997356e-15 2.000000000000000000e+01 -7.951389999999999226e-16 -1.590280000000000116e-14 -3.944304526105059027e-31 -9.541660000000000512e-15 -3.180549999999999982e-15 2.000000000000000000e+01 3.180550000000000771e-15 -3.180549999999999982e-15 2.400000000000000000e+01 -7.951389999999999226e-15 0.000000000000000000e+00 2.000000000000000000e+01 -6.361109999999999741e-15 -3.180550000000000771e-15 -3.944304526105059027e-31 -9.541660000000000512e-15 -3.180549999999999982e-15 1.997479999999999833e+01 -1.025649999999999951e+00 -2.819380000000000219e+00 2.400000000000000000e+01 3.180550000000000376e-15 0.000000000000000000e+00 2.000000000000000000e+01 -1.033680000000000025e-14 0.000000000000000000e+00 -3.944304526105059027e-31 -9.541660000000000512e-15 -3.180549999999999982e-15 1.978150000000000119e+01 -3.009479999999999933e+00 -8.305149999999999366e+00 2.400000000000000000e+01 -4.770830000000000256e-15 -9.541660000000002090e-15 2.000000000000000000e+01 4.422960000000001961e-15 -1.590280000000000116e-14 6.204039999999999999e+00 -1.674050000000000438e+01 -1.973809999999999931e+01 1.997409999999999997e+01 2.268519999999999825e+01 -1.379859999999999616e+02 5.042710000000001003e+01 9.453440000000007615e+00 3.764079999999992765e+00 -6.132779999999999632e+01 -4.167450000000000188e+01 -6.279590000000001027e+01 -2.818400000000000105e+01 1.072940000000000005e+01 -1.915919999999999845e+01 9.688859999999999433e-15 0.000000000000000000e+00 1.000000000000000000e+01 1.081050000000000162e-14 -6.361109999999999741e-15 1.000000000000000000e+01 -2.385420000000000017e-15 3.180550000000000376e-15 5.168399999999999338e-15 -1.998179999999999978e+01 8.718970000000000331e-01 -2.396399999999999864e+00 -2.400000000000000000e+01 0.000000000000000000e+00 -6.361109999999998163e-15 -2.000000000000000000e+01 6.361109999999998163e-15 -6.361110000000001319e-15 -2.385420000000000017e-15 3.180550000000000376e-15 5.168399999999999338e-15 -2.000000000000000000e+01 9.541660000000000512e-15 3.180550000000000771e-15 -2.400000000000000000e+01 6.361110000000001319e-15 -6.361109999999997375e-15 -2.000000000000000000e+01 3.180549999999999587e-15 -9.541660000000000512e-15 -2.385420000000000017e-15 3.180550000000000376e-15 5.168399999999999338e-15 -1.997479999999999833e+01 -1.025649999999999951e+00 2.819380000000000219e+00 -2.400000000000000000e+01 0.000000000000000000e+00 0.000000000000000000e+00 -2.000000000000000000e+01 4.770830000000000256e-15 -3.180549999999999193e-15 -2.385420000000000017e-15 3.180550000000000376e-15 5.168399999999999338e-15 -1.978150000000000119e+01 -3.009479999999999933e+00 8.305149999999999366e+00 -2.400000000000000000e+01 0.000000000000000000e+00 -6.361109999999998952e-15 -2.000000000000000000e+01 -6.361110000000000530e-15 -3.180550000000000771e-15
